<mxfile host="app.diagrams.net" agent="Mozilla/5.0 (Macintosh; Intel Mac OS X 10_15_7) AppleWebKit/537.36 (KHTML, like Gecko) Chrome/140.0.0.0 Safari/537.36" version="28.2.4">
  <diagram name="Diagrama de flujo media" id="0">
    <mxGraphModel dx="1358" dy="1899" grid="1" gridSize="10" guides="1" tooltips="1" connect="1" arrows="1" fold="1" page="1" pageScale="1" pageWidth="827" pageHeight="1169" math="0" shadow="0">
      <root>
        <mxCell id="0" />
        <mxCell id="1" parent="0" />
        <mxCell id="2" value="Inicio" style="ellipse;whiteSpace=wrap;html=1;" parent="1" vertex="1">
          <mxGeometry x="370" y="-180" width="120" height="60" as="geometry" />
        </mxCell>
        <mxCell id="3" value="ESCRIBIR:&lt;div&gt;&quot;Ingrese num1&quot;&lt;br&gt;LEER: num1&lt;/div&gt;" style="shape=parallelogram;whiteSpace=wrap;html=1;" parent="1" vertex="1">
          <mxGeometry x="50" y="-10" width="160" height="60" as="geometry" />
        </mxCell>
        <mxCell id="4" value="ESCRIBIR:&lt;div&gt;&quot;Ingrese num2&quot;&lt;br&gt;LEER: num2&lt;/div&gt;" style="shape=parallelogram;whiteSpace=wrap;html=1;" parent="1" vertex="1">
          <mxGeometry x="230" y="-10" width="160" height="60" as="geometry" />
        </mxCell>
        <mxCell id="5" value="ESCRIBIR:&lt;div&gt;&quot;Ingrese num3&quot;&lt;br&gt;LEER: num3&lt;/div&gt;" style="shape=parallelogram;whiteSpace=wrap;html=1;" parent="1" vertex="1">
          <mxGeometry x="400" y="-10" width="160" height="60" as="geometry" />
        </mxCell>
        <mxCell id="6" value="ESCRIBIR:&lt;div&gt;&quot;Ingrese num4&quot;&lt;br&gt;LEER: num4&lt;/div&gt;" style="shape=parallelogram;whiteSpace=wrap;html=1;" parent="1" vertex="1">
          <mxGeometry x="580" y="-10" width="160" height="60" as="geometry" />
        </mxCell>
        <mxCell id="0F6VyRKYuQ8UZycxaRkB-59" style="edgeStyle=orthogonalEdgeStyle;rounded=0;orthogonalLoop=1;jettySize=auto;html=1;exitX=1;exitY=0.5;exitDx=0;exitDy=0;entryX=0.5;entryY=0;entryDx=0;entryDy=0;" edge="1" parent="1" source="8" target="0F6VyRKYuQ8UZycxaRkB-68">
          <mxGeometry relative="1" as="geometry">
            <mxPoint x="880" y="455" as="targetPoint" />
          </mxGeometry>
        </mxCell>
        <mxCell id="8" value="&lt;br&gt;ESCRIBIR: &quot;media&quot;" style="shape=parallelogram;whiteSpace=wrap;html=1;" parent="1" vertex="1">
          <mxGeometry x="320" y="230" width="160" height="60" as="geometry" />
        </mxCell>
        <mxCell id="10" value="ESCRIBIR: num1" style="shape=parallelogram;whiteSpace=wrap;html=1;" parent="1" vertex="1">
          <mxGeometry x="40" y="380" width="160" height="60" as="geometry" />
        </mxCell>
        <mxCell id="12" value="ESCRIBIR: num2" style="shape=parallelogram;whiteSpace=wrap;html=1;" parent="1" vertex="1">
          <mxGeometry x="253.5" y="410" width="160" height="60" as="geometry" />
        </mxCell>
        <mxCell id="14" value="ESCRIBIR: num3" style="shape=parallelogram;whiteSpace=wrap;html=1;" parent="1" vertex="1">
          <mxGeometry x="430" y="420" width="160" height="60" as="geometry" />
        </mxCell>
        <mxCell id="16" value="ESCRIBIR: num4" style="shape=parallelogram;whiteSpace=wrap;html=1;" parent="1" vertex="1">
          <mxGeometry x="630" y="420" width="160" height="60" as="geometry" />
        </mxCell>
        <mxCell id="17" value="Fin" style="ellipse;whiteSpace=wrap;html=1;" parent="1" vertex="1">
          <mxGeometry x="370" y="585" width="120" height="60" as="geometry" />
        </mxCell>
        <mxCell id="18" style="entryX=1;entryY=0.25;entryDx=0;entryDy=0;" parent="1" source="2" target="0F6VyRKYuQ8UZycxaRkB-35" edge="1">
          <mxGeometry relative="1" as="geometry" />
        </mxCell>
        <mxCell id="19" parent="1" source="3" target="4" edge="1">
          <mxGeometry relative="1" as="geometry" />
        </mxCell>
        <mxCell id="20" parent="1" source="4" target="5" edge="1">
          <mxGeometry relative="1" as="geometry" />
        </mxCell>
        <mxCell id="21" parent="1" source="5" target="6" edge="1">
          <mxGeometry relative="1" as="geometry" />
        </mxCell>
        <mxCell id="22" style="entryX=0.766;entryY=0.036;entryDx=0;entryDy=0;entryPerimeter=0;" parent="1" source="6" target="0F6VyRKYuQ8UZycxaRkB-39" edge="1">
          <mxGeometry relative="1" as="geometry">
            <mxPoint x="410" y="180" as="targetPoint" />
          </mxGeometry>
        </mxCell>
        <mxCell id="24" style="entryX=0.75;entryY=0;entryDx=0;entryDy=0;exitX=0;exitY=0.75;exitDx=0;exitDy=0;" parent="1" source="0F6VyRKYuQ8UZycxaRkB-61" target="10" edge="1">
          <mxGeometry relative="1" as="geometry">
            <mxPoint x="190" y="360" as="targetPoint" />
          </mxGeometry>
        </mxCell>
        <mxCell id="25" style="entryX=0.5;entryY=0;entryDx=0;entryDy=0;" parent="1" source="0F6VyRKYuQ8UZycxaRkB-65" target="12" edge="1">
          <mxGeometry relative="1" as="geometry">
            <mxPoint x="337.2972972972973" y="373.6486486486492" as="targetPoint" />
          </mxGeometry>
        </mxCell>
        <mxCell id="26" style="entryX=0.75;entryY=0;entryDx=0;entryDy=0;" parent="1" source="8" target="14" edge="1">
          <mxGeometry relative="1" as="geometry">
            <mxPoint x="522.7272727272727" y="378.63636363636397" as="targetPoint" />
          </mxGeometry>
        </mxCell>
        <mxCell id="32" parent="1" source="10" target="17" edge="1">
          <mxGeometry relative="1" as="geometry" />
        </mxCell>
        <mxCell id="33" parent="1" source="12" target="17" edge="1">
          <mxGeometry relative="1" as="geometry" />
        </mxCell>
        <mxCell id="34" parent="1" source="14" target="17" edge="1">
          <mxGeometry relative="1" as="geometry" />
        </mxCell>
        <mxCell id="35" parent="1" source="16" target="17" edge="1">
          <mxGeometry relative="1" as="geometry" />
        </mxCell>
        <mxCell id="0F6VyRKYuQ8UZycxaRkB-35" value="&amp;nbsp;num1: REAL&lt;br&gt;&amp;nbsp;num2&lt;span style=&quot;background-color: transparent; color: light-dark(rgb(0, 0, 0), rgb(255, 255, 255));&quot;&gt;: REAL&lt;/span&gt;&lt;div&gt;&lt;div&gt;&amp;nbsp;num3: REAL&lt;/div&gt;&lt;div&gt;&amp;nbsp;num4: REAL&lt;br&gt;&lt;div&gt;media: REAL&lt;/div&gt;&lt;/div&gt;&lt;/div&gt;" style="shape=parallelogram;whiteSpace=wrap;html=1;" vertex="1" parent="1">
          <mxGeometry x="110" y="-170" width="160" height="90" as="geometry" />
        </mxCell>
        <mxCell id="0F6VyRKYuQ8UZycxaRkB-36" style="exitX=0.5;exitY=1;exitDx=0;exitDy=0;entryX=0.5;entryY=0;entryDx=0;entryDy=0;" edge="1" parent="1" source="0F6VyRKYuQ8UZycxaRkB-35" target="3">
          <mxGeometry relative="1" as="geometry">
            <mxPoint x="497" y="-80" as="sourcePoint" />
            <mxPoint x="300" y="94" as="targetPoint" />
          </mxGeometry>
        </mxCell>
        <mxCell id="0F6VyRKYuQ8UZycxaRkB-39" value="" style="verticalLabelPosition=bottom;verticalAlign=top;html=1;shape=hexagon;perimeter=hexagonPerimeter2;arcSize=6;size=0.27;" vertex="1" parent="1">
          <mxGeometry x="280" y="85" width="240" height="100" as="geometry" />
        </mxCell>
        <mxCell id="0F6VyRKYuQ8UZycxaRkB-43" style="edgeStyle=orthogonalEdgeStyle;rounded=0;orthogonalLoop=1;jettySize=auto;html=1;exitX=0.5;exitY=1;exitDx=0;exitDy=0;" edge="1" parent="1" source="0F6VyRKYuQ8UZycxaRkB-39" target="8">
          <mxGeometry relative="1" as="geometry">
            <mxPoint x="390" y="300" as="sourcePoint" />
          </mxGeometry>
        </mxCell>
        <mxCell id="0F6VyRKYuQ8UZycxaRkB-40" value="&lt;div&gt;&lt;br&gt;&lt;/div&gt;media=(num1+num2+num3+num4)/4&lt;div&gt;&lt;br&gt;&lt;/div&gt;" style="text;html=1;align=center;verticalAlign=middle;whiteSpace=wrap;rounded=0;" vertex="1" parent="1">
          <mxGeometry x="380" y="120" width="60" height="30" as="geometry" />
        </mxCell>
        <mxCell id="0F6VyRKYuQ8UZycxaRkB-56" style="edgeStyle=orthogonalEdgeStyle;rounded=0;orthogonalLoop=1;jettySize=auto;html=1;exitX=0.5;exitY=1;exitDx=0;exitDy=0;entryX=1;entryY=0.5;entryDx=0;entryDy=0;" edge="1" parent="1" source="0F6VyRKYuQ8UZycxaRkB-68" target="17">
          <mxGeometry relative="1" as="geometry">
            <mxPoint x="880" y="585" as="sourcePoint" />
          </mxGeometry>
        </mxCell>
        <mxCell id="0F6VyRKYuQ8UZycxaRkB-66" value="&lt;span style=&quot;color: rgb(255, 255, 255); font-family: Helvetica; font-size: 12px; font-style: normal; font-variant-ligatures: normal; font-variant-caps: normal; font-weight: 400; letter-spacing: normal; orphans: 2; text-align: center; text-indent: 0px; text-transform: none; widows: 2; word-spacing: 0px; -webkit-text-stroke-width: 0px; white-space: normal; background-color: rgb(27, 29, 30); text-decoration-thickness: initial; text-decoration-style: initial; text-decoration-color: initial; display: inline !important; float: none;&quot;&gt;num3 &amp;gt; media&lt;/span&gt;" style="text;whiteSpace=wrap;html=1;" vertex="1" parent="1">
          <mxGeometry x="455" y="370" width="110" height="40" as="geometry" />
        </mxCell>
        <mxCell id="0F6VyRKYuQ8UZycxaRkB-68" value="&lt;span style=&quot;color: rgb(255, 255, 255); font-family: Helvetica; font-size: 12px; font-style: normal; font-variant-ligatures: normal; font-variant-caps: normal; font-weight: 400; letter-spacing: normal; orphans: 2; text-align: center; text-indent: 0px; text-transform: none; widows: 2; word-spacing: 0px; -webkit-text-stroke-width: 0px; white-space: normal; background-color: rgb(27, 29, 30); text-decoration-thickness: initial; text-decoration-style: initial; text-decoration-color: initial; display: inline !important; float: none;&quot;&gt;num1, num2,&amp;nbsp;&lt;/span&gt;&lt;div style=&quot;forced-color-adjust: none; box-shadow: none !important; color: rgb(255, 255, 255); font-family: Helvetica; font-size: 12px; font-style: normal; font-variant-ligatures: normal; font-variant-caps: normal; font-weight: 400; letter-spacing: normal; orphans: 2; text-align: center; text-indent: 0px; text-transform: none; widows: 2; word-spacing: 0px; -webkit-text-stroke-width: 0px; white-space: normal; background-color: rgb(27, 29, 30); text-decoration-thickness: initial; text-decoration-style: initial; text-decoration-color: initial;&quot;&gt;num3, num4 = media&lt;/div&gt;" style="text;whiteSpace=wrap;html=1;" vertex="1" parent="1">
          <mxGeometry x="730" y="500" width="150" height="50" as="geometry" />
        </mxCell>
        <mxCell id="0F6VyRKYuQ8UZycxaRkB-70" value="" style="entryX=0.5;entryY=0;entryDx=0;entryDy=0;" edge="1" parent="1" source="8" target="0F6VyRKYuQ8UZycxaRkB-65">
          <mxGeometry relative="1" as="geometry">
            <mxPoint x="387" y="290" as="sourcePoint" />
            <mxPoint x="334" y="410" as="targetPoint" />
          </mxGeometry>
        </mxCell>
        <mxCell id="0F6VyRKYuQ8UZycxaRkB-65" value="&lt;span style=&quot;color: rgb(255, 255, 255); font-family: Helvetica; font-size: 12px; font-style: normal; font-variant-ligatures: normal; font-variant-caps: normal; font-weight: 400; letter-spacing: normal; orphans: 2; text-align: center; text-indent: 0px; text-transform: none; widows: 2; word-spacing: 0px; -webkit-text-stroke-width: 0px; white-space: normal; background-color: rgb(27, 29, 30); text-decoration-thickness: initial; text-decoration-style: initial; text-decoration-color: initial; display: inline !important; float: none;&quot;&gt;num2 &amp;gt; media&lt;/span&gt;" style="text;whiteSpace=wrap;html=1;" vertex="1" parent="1">
          <mxGeometry x="310" y="350" width="110" height="40" as="geometry" />
        </mxCell>
        <mxCell id="0F6VyRKYuQ8UZycxaRkB-72" value="" style="entryX=0.25;entryY=0;entryDx=0;entryDy=0;exitX=0;exitY=0.75;exitDx=0;exitDy=0;" edge="1" parent="1" source="8" target="0F6VyRKYuQ8UZycxaRkB-61">
          <mxGeometry relative="1" as="geometry">
            <mxPoint x="320" y="275" as="sourcePoint" />
            <mxPoint x="160" y="380" as="targetPoint" />
          </mxGeometry>
        </mxCell>
        <mxCell id="0F6VyRKYuQ8UZycxaRkB-61" value="&lt;span style=&quot;color: rgb(255, 255, 255); font-family: Helvetica; font-size: 12px; font-style: normal; font-variant-ligatures: normal; font-variant-caps: normal; font-weight: 400; letter-spacing: normal; orphans: 2; text-align: center; text-indent: 0px; text-transform: none; widows: 2; word-spacing: 0px; -webkit-text-stroke-width: 0px; white-space: normal; background-color: rgb(27, 29, 30); text-decoration-thickness: initial; text-decoration-style: initial; text-decoration-color: initial; display: inline !important; float: none;&quot;&gt;num1 &amp;gt; media&lt;/span&gt;" style="text;whiteSpace=wrap;html=1;" vertex="1" parent="1">
          <mxGeometry x="190" y="310" width="110" height="40" as="geometry" />
        </mxCell>
        <mxCell id="0F6VyRKYuQ8UZycxaRkB-73" value="" style="entryX=0.5;entryY=0;entryDx=0;entryDy=0;" edge="1" parent="1" source="8" target="16">
          <mxGeometry relative="1" as="geometry">
            <mxPoint x="480" y="284" as="sourcePoint" />
            <mxPoint x="670" y="340" as="targetPoint" />
          </mxGeometry>
        </mxCell>
        <mxCell id="0F6VyRKYuQ8UZycxaRkB-67" value="&lt;span style=&quot;color: rgb(255, 255, 255); font-family: Helvetica; font-size: 12px; font-style: normal; font-variant-ligatures: normal; font-variant-caps: normal; font-weight: 400; letter-spacing: normal; orphans: 2; text-align: center; text-indent: 0px; text-transform: none; widows: 2; word-spacing: 0px; -webkit-text-stroke-width: 0px; white-space: normal; background-color: rgb(27, 29, 30); text-decoration-thickness: initial; text-decoration-style: initial; text-decoration-color: initial; display: inline !important; float: none;&quot;&gt;num4 &amp;gt; media&lt;/span&gt;" style="text;whiteSpace=wrap;html=1;" vertex="1" parent="1">
          <mxGeometry x="590" y="360" width="110" height="40" as="geometry" />
        </mxCell>
      </root>
    </mxGraphModel>
  </diagram>
</mxfile>
